<svg xmlns="http://www.w3.org/2000/svg" viewBox="0 0 1600 200" width="1600" height="200">
  <rect x="0" y="20" width="1600" height="180" fill="#5D4037"/>
  <rect x="0" y="0" width="1600" height="24" fill="#4CAF50"/>
  <rect x="0" y="0" width="1600" height="8" fill="#66BB6A"/>
  <path d="M50,4 L54,-6 L58,4" fill="#81C784"/>
  <path d="M200,4 L204,-8 L208,4" fill="#81C784"/>
  <path d="M380,4 L384,-5 L388,4" fill="#81C784"/>
  <path d="M520,4 L525,-7 L530,4" fill="#81C784"/>
  <path d="M700,4 L704,-6 L708,4" fill="#81C784"/>
  <path d="M880,4 L884,-8 L888,4" fill="#81C784"/>
  <path d="M1050,4 L1054,-5 L1058,4" fill="#81C784"/>
  <path d="M1250,4 L1254,-7 L1258,4" fill="#81C784"/>
  <path d="M1420,4 L1424,-6 L1428,4" fill="#81C784"/>
</svg>
