<svg xmlns="http://www.w3.org/2000/svg" viewBox="0 0 1600 600" width="1600" height="600">
  <rect x="50" y="300" width="16" height="300" fill="#2d5016"/>
  <circle cx="58" cy="280" r="40" fill="#2E7D32"/>
  <circle cx="38" cy="300" r="30" fill="#1B5E20"/>
  <circle cx="78" cy="300" r="30" fill="#1B5E20"/>
  <rect x="200" y="260" width="20" height="340" fill="#2d5016"/>
  <circle cx="210" cy="230" r="50" fill="#388E3C"/>
  <circle cx="185" cy="260" r="35" fill="#2E7D32"/>
  <circle cx="235" cy="260" r="35" fill="#2E7D32"/>
  <rect x="400" y="320" width="14" height="280" fill="#2d5016"/>
  <circle cx="407" cy="300" r="35" fill="#2E7D32"/>
  <circle cx="390" cy="315" r="25" fill="#1B5E20"/>
  <circle cx="424" cy="315" r="25" fill="#1B5E20"/>
  <rect x="580" y="280" width="18" height="320" fill="#2d5016"/>
  <circle cx="589" cy="255" r="45" fill="#388E3C"/>
  <circle cx="567" cy="278" r="32" fill="#2E7D32"/>
  <circle cx="611" cy="278" r="32" fill="#2E7D32"/>
  <rect x="750" y="310" width="14" height="290" fill="#2d5016"/>
  <circle cx="757" cy="290" r="38" fill="#2E7D32"/>
  <circle cx="740" cy="308" r="26" fill="#1B5E20"/>
  <circle cx="774" cy="308" r="26" fill="#1B5E20"/>
  <rect x="920" y="270" width="18" height="330" fill="#2d5016"/>
  <circle cx="929" cy="245" r="45" fill="#388E3C"/>
  <circle cx="908" cy="268" r="32" fill="#2E7D32"/>
  <circle cx="950" cy="268" r="32" fill="#2E7D32"/>
  <rect x="1100" y="300" width="16" height="300" fill="#2d5016"/>
  <circle cx="1108" cy="278" r="40" fill="#2E7D32"/>
  <circle cx="1088" cy="298" r="28" fill="#1B5E20"/>
  <circle cx="1128" cy="298" r="28" fill="#1B5E20"/>
  <rect x="1300" y="280" width="18" height="320" fill="#2d5016"/>
  <circle cx="1309" cy="255" r="45" fill="#388E3C"/>
  <circle cx="1287" cy="278" r="32" fill="#2E7D32"/>
  <circle cx="1331" cy="278" r="32" fill="#2E7D32"/>
  <rect x="1480" y="310" width="14" height="290" fill="#2d5016"/>
  <circle cx="1487" cy="290" r="38" fill="#2E7D32"/>
  <circle cx="1470" cy="308" r="26" fill="#1B5E20"/>
  <circle cx="1504" cy="308" r="26" fill="#1B5E20"/>
</svg>
