<svg xmlns="http://www.w3.org/2000/svg" viewBox="0 0 64 80" width="64" height="80">
  <!-- Pointy hat -->
  <polygon points="32,2 20,28 44,28" fill="#c0392b"/>
  <!-- Face -->
  <circle cx="32" cy="36" r="10" fill="#f5cba7"/>
  <!-- Eyes -->
  <circle cx="28" cy="34" r="2" fill="#2c3e50"/>
  <circle cx="36" cy="34" r="2" fill="#2c3e50"/>
  <!-- Beard -->
  <ellipse cx="32" cy="44" rx="8" ry="5" fill="#bdc3c7"/>
  <!-- Body -->
  <rect x="24" y="46" width="16" height="18" rx="3" fill="#27ae60"/>
  <!-- Belt -->
  <rect x="24" y="56" width="16" height="3" fill="#8B4513"/>
  <!-- Arms raised above head (holding hooch) -->
  <line x1="26" y1="48" x2="22" y2="10" stroke="#f5cba7" stroke-width="4" stroke-linecap="round"/>
  <line x1="38" y1="48" x2="42" y2="10" stroke="#f5cba7" stroke-width="4" stroke-linecap="round"/>
  <!-- Hands at top -->
  <circle cx="22" cy="8" r="3" fill="#f5cba7"/>
  <circle cx="42" cy="8" r="3" fill="#f5cba7"/>
  <!-- Legs -->
  <rect x="26" y="64" width="5" height="10" rx="2" fill="#8B6914"/>
  <rect x="33" y="64" width="5" height="10" rx="2" fill="#8B6914"/>
  <!-- Feet -->
  <ellipse cx="28" cy="75" rx="5" ry="3" fill="#5D4037"/>
  <ellipse cx="36" cy="75" rx="5" ry="3" fill="#5D4037"/>
</svg>
